<svg width="14" height="14" viewBox="0 0 14 14" fill="none" xmlns="http://www.w3.org/2000/svg">
<path d="M6.09588 4.35748C5.98505 4.35748 5.8742 4.31667 5.7867 4.22917L3.92587 2.36833L2.06503 4.22917C1.89586 4.39833 1.61587 4.39833 1.4467 4.22917C1.27753 4.06 1.27753 3.78 1.4467 3.61083L3.61672 1.44082C3.69838 1.35915 3.8092 1.3125 3.92587 1.3125C4.04253 1.3125 4.15338 1.35915 4.23505 1.44082L6.40503 3.61083C6.5742 3.78 6.5742 4.06 6.40503 4.22917C6.31753 4.31667 6.20672 4.35748 6.09588 4.35748Z" fill="#ABABAB"/>
<path d="M3.92578 12.6875C3.68661 12.6875 3.48828 12.4892 3.48828 12.25V1.75C3.48828 1.51083 3.68661 1.3125 3.92578 1.3125C4.16495 1.3125 4.36328 1.51083 4.36328 1.75V12.25C4.36328 12.4892 4.16495 12.6875 3.92578 12.6875Z" fill="#ABABAB"/>
<path d="M10.0799 12.6871C9.96325 12.6871 9.8524 12.6404 9.77073 12.5588L7.60075 10.3888C7.43159 10.2196 7.43159 9.9396 7.60075 9.77043C7.76992 9.60126 8.04992 9.60126 8.21908 9.77043L10.0799 11.6313L11.9407 9.77043C12.1099 9.60126 12.3899 9.60126 12.5591 9.77043C12.7283 9.9396 12.7283 10.2196 12.5591 10.3888L10.3891 12.5588C10.3074 12.6404 10.1908 12.6871 10.0799 12.6871Z" fill="#292D32"/>
<path d="M10.0742 12.6875C9.83505 12.6875 9.63672 12.4892 9.63672 12.25V1.75C9.63672 1.51083 9.83505 1.3125 10.0742 1.3125C10.3134 1.3125 10.5117 1.51083 10.5117 1.75V12.25C10.5117 12.4892 10.3192 12.6875 10.0742 12.6875Z" fill="#292D32"/>
</svg>
